<?xml version="1.0" standalone="no"?>
<!DOCTYPE svg PUBLIC "-//W3C//DTD SVG 1.1//EN" "http://www.w3.org/Graphics/SVG/1.1/DTD/svg11.dtd" >
<!--
2013-9-30: Created.
-->
<svg>
<metadata>
Created by iconfont
</metadata>
<defs>

<font id="iconfont" horiz-adv-x="1024" >
  <font-face
    font-family="iconfont"
    font-weight="500"
    font-stretch="normal"
    units-per-em="1024"
    ascent="896"
    descent="-128"
  />
    <missing-glyph />
    
    <glyph glyph-name="htmal5icon31" unicode="&#58947;" d="M514.30896823 878.24364251c-197.60419769 0-364.1320462-136.93517354-417.7377226-323.98408936-47.92797264-28.86275993-75.95219281-84.4568251-75.9521928-149.53050664 0-94.37094676 57.53343885-170.8927649 151.90438561-170.89276489 21.00061216 0 37.97543425 16.97482209 37.97543425 37.97543424l0 265.83333699c0 17.46893828-12.39927657 31.17967663-28.48256956 35.60287958 55.44834677 136.10325536 183.44570704 231.41739623 332.2913395 231.41739624 148.84563247 0 276.84299404-95.31413958 332.2913395-231.41739624-16.08196739-4.42320297-28.48256957-18.1339426-28.48256956-35.60287958l0-265.83333699c0-21.00061216 16.97482209-37.97543425 37.97543425-37.97543424 8.83580883 0 16.74829602 1.07963845 24.92175174 2.37387897-12.28270211-70.86265993-42.04229097-123.6695363-72.39137499-160.21163578-18.92876709-22.79161879-38.33972896-39.3080915-53.40432002-49.84350221-7.53229553-5.26836817-13.39148319-8.54039908-17.80144046-10.68112912-2.20564078-1.07036437-4.00857012-2.04667536-4.74643232-2.37387898l-71.20443487 0c-13.67629585 39.65384066-57.19961108 68.8318815-109.18119472 68.8318815-62.9210301 0-113.92895136-42.5059389-113.92895136-94.94057209s51.00792127-94.9405721 113.92895136-94.94057209c51.98158234 0 95.50489757 29.17936644 109.18119472 68.8318815l74.76525397 0c12.8364305 0 16.10051424 3.4150994 23.73481162 7.12031131 7.63429868 3.70521061 16.60390321 8.78017088 26.1086906 15.42756147 19.00825043 13.29477989 41.94691196 32.68322198 64.08412484 59.3376925 40.03800655 48.20616244 77.32061685 119.82523143 86.63332193 215.98983478 44.77781473 29.71984782 71.20443487 83.23014394 71.20443486 145.96968882 0 65.07500716-28.02422017 120.66907103-75.95219281 149.53050664C878.44233875 741.30847025 711.91316593 878.24364251 514.30896823 878.24364251z"  horiz-adv-x="1024" />

    
    <glyph glyph-name="zuobiao" unicode="&#58903;" d="M530.26876682 887.74853215c-205.26239289-0.39078875-371.52479763-166.86921955-371.52479764-372.2202074 0-191.73649067 156.53152237-393.42231703 337.53588623-610.37681778 9.51242903-11.42996385 21.81741985-17.57942518 33.98891141-18.27847586 12.17149155 0.69905067 24.47648237 6.848512 33.98405688 18.27847586 181.00557748 216.95450075 337.53831348 418.63911348 337.53831348 610.37681778 0 205.35220148-166.26361837 371.82941867-371.523584 372.2202074zM530.26876682 397.3899757c-80.18450963 0.43447941-145.10398578 65.4826003-145.10398579 145.75570489s64.91947615 145.32001185 145.10398579 145.75570489c80.183296-0.43447941 145.09791763-65.4826003 145.09791763-145.75570489s-64.913408-145.32001185-145.09791763-145.75570489z"  horiz-adv-x="1024" />

    
    <glyph glyph-name="yanjing" unicode="&#58977;" d="M515.2 672c-307.2 0-492.8-313.6-492.8-313.6s214.4-304 492.8-304 492.8 304 492.8 304S822.4 672 515.2 672zM832 243.20000000000005c-102.4-86.4-211.2-140.8-320-140.8s-217.6 51.2-320 140.8c-35.2 32-70.4 64-99.2 99.2-6.4 6.4-9.6 12.8-16 19.2 3.2 6.4 9.6 12.8 12.8 19.2 25.6 35.2 57.6 70.4 92.8 102.4 99.2 89.6 208 144 329.6 144s230.4-54.4 329.6-144c35.2-32 64-67.2 92.8-102.4 3.2-6.4 9.6-12.8 12.8-19.2-3.2-6.4-9.6-12.8-16-19.2C902.4 310.4 870.4 275.20000000000005 832 243.20000000000005zM512 550.4c-96 0-169.6-76.8-169.6-169.6 0-96 76.8-169.6 169.6-169.6 96 0 169.6 76.8 169.6 169.6C681.6 473.6 604.8 550.4 512 550.4zM512 256c-67.2 0-121.6 54.4-121.6 121.6 0 67.2 54.4 121.6 121.6 121.6 67.2 0 121.6-54.4 121.6-121.6C633.6 313.6 579.2 256 512 256z"  horiz-adv-x="1024" />

    
    <glyph glyph-name="zhaoxiangji" unicode="&#58979;" d="M512 638.8622222199999c-141.99466667 0-254.86222222-112.86755555-254.86222222-254.86222222s112.86755555-254.86222222 254.86222222-254.86222222 254.86222222 112.86755555 254.86222222 254.86222222S653.99466667 638.8622222199999 512 638.8622222199999zM512 183.75111111c-109.22666667 0-200.24888889 91.02222222-200.24888889 200.24888889s91.02222222 200.24888889 200.24888889 200.24888889 200.24888889-91.02222222 200.24888889-200.24888889S621.22666667 183.75111111 512 183.75111111zM803.27111111 544.19911111a1.82044446 1.82044446 0 1 1 116.50844443 0 1.82044446 1.82044446 0 1 1-116.50844443 0ZM912.49777778 711.6800000000001l-109.22666667 0-25.48622222 76.45866666c-7.28177778 18.20444445-29.12711115 32.768-47.33155555 32.76799999l-436.90666665 0c-21.84533333 0-40.04977776-14.56355554-47.33155558-32.76799999l-25.48622222-76.45866666-109.22666667 0c-61.89511113 0-109.22666667-47.33155555-109.22666667-109.22666669l0-509.72444442c0-61.89511113 50.97244446-109.22666667 109.22666667-109.22666667l800.99555556 0c61.89511113 0 109.22666667 47.33155555 109.22666667 109.22666667l0 509.72444442C1021.72444445 664.34844445 974.39288885 711.6800000000001 912.49777778 711.6800000000001zM967.11111111 92.72888889000001c0-29.12711115-25.48622221-54.61333333-54.61333333-54.61333334l-800.99555556 0c-29.12711115 0-54.61333333 25.48622221-54.61333333 54.61333334l0 509.72444445c0 29.12711115 25.48622221 54.61333333 54.61333333 54.61333333l109.22666667 0 40.04977779 0 10.92266666 36.40888887 25.48622221 72.81777781 429.6248889 0 25.48622223-72.81777778 10.92266667-36.4088889 40.04977776 0 109.22666667 0c29.12711115 0 54.61333333-25.48622221 54.61333333-54.61333333L967.11111111 92.72888889000001z"  horiz-adv-x="1024" />

    
    <glyph glyph-name="duanxin" unicode="&#58925;" d="M1019.85735225 640.06690361c0 73.16895858-59.31501113 132.48396971-132.48396971 132.4839697L135.9117403 772.55087331c-73.16895858 0-132.48396971-59.31501113-132.48396971-132.4839697l0-510.45256534c0-73.16895858 59.31501113-132.48396971 132.48396971-132.4839697l751.46164111 0c73.16895858 0 132.48396971 59.31501113 132.4839697 132.4839697L1019.85735225 640.06690361zM889.53082083 724.81477632c13.72121771 0 26.67516359-3.94346723 38.13764893-9.78357134L533.33221376 341.50672383999995c-1.39715357-1.32147541-1.31565341-1.04320797-1.99443797-2.12600263-1.62302749-1.21435933-6.89029803-4.46274333-17.57852672-4.46274332-10.69172167 0-15.95782827 3.13428195-17.57969067 4.34514944-0.76959858 1.22600221-0.75329877 0.81500615-2.27037525 2.20750392l-401.77493675 369.10947442c13.20892757 8.59831865 28.95136085 14.2335067 45.85343203 14.2335067L889.53082083 724.81361237zM972.12125411 128.58626617000004c0-46.48680903-36.10246144-83.72096455-82.59043328-83.72096455L137.98651449 44.86530161999997c-46.48797298 0-85.65835093 37.23415552-85.65835094 83.72096455L52.32816355 639.25189746c0 12.09469725 3.25420487 23.59211008 7.86131968 33.99974457l399.91322852-366.47467464c5.58861653-6.03337728 22.16352085-20.11203243 53.4865499-20.11203242 31.62923918 0 48.13195719 14.35692259 53.5622292 20.28667676l394.58192156 374.21490859c7.11267897-12.35666375 10.38784057-26.66235677 10.38784057-41.91345778L972.12125411 128.58626617000004z"  horiz-adv-x="1024" />

    
    <glyph glyph-name="pingjia" unicode="&#58937;" d="M932.117336 49.543625 627.301026 49.543625 512.01228-63.332165 396.654972 49.543625 91.873454 49.543625c-50.251497 0-91.140767 40.028669-91.140767 89.221044L0.732687 742.143866c0 49.15963 40.889269 89.188298 91.140767 89.188298l840.243883 0c50.251497 0 91.106997-40.029692 91.106997-89.188298l0-603.379197C1023.224334 89.572294 982.368834 49.543625 932.117336 49.543625L932.117336 49.543625zM930.231383 702.743508c0 25.440415-20.841677 46.149063-46.414099 46.149063L140.271744 748.892571c-25.637913 0-46.479591-20.708648-46.479591-46.149063l0-527.620769c0-25.440415 20.841677-46.116317 46.479591-46.116317l294.526967 0 77.246315-76.748988 77.1798 76.748988 294.592458 0c25.571399 0 46.414099 20.675902 46.414099 46.116317L930.231383 702.743508 930.231383 702.743508zM704.679347 396.703323c-33.345456 0-60.539818 26.66429-60.539818 59.381435 0 32.6844 27.193339 59.315944 60.539818 59.315944 33.44574 0 60.606333-26.630521 60.606333-59.315944C765.28568 423.367613 738.12611 396.703323 704.679347 396.703323L704.679347 396.703323zM512.01228 396.703323c-33.379225 0-60.606333 26.66429-60.606333 59.381435 0 32.6844 27.227108 59.315944 60.606333 59.315944 33.379225 0 60.538795-26.630521 60.538795-59.315944C572.551074 423.367613 545.390481 396.703323 512.01228 396.703323L512.01228 396.703323zM319.27665 396.703323c-33.379225 0-60.572564 26.66429-60.572564 59.381435 0 32.6844 27.193339 59.315944 60.572564 59.315944 33.346479 0 60.539818-26.630521 60.539818-59.315944C379.817492 423.367613 352.62313 396.703323 319.27665 396.703323L319.27665 396.703323z"  horiz-adv-x="1039" />

    
    <glyph glyph-name="gouwuche" unicode="&#58913;" d="M1042.537043 214.99771397999996C1040.1653 203.29503593000004 1030.1166 194.74427801000002 1018.133057 194.21375698999998L427.038552 168.249413C426.66406602 168.21820602000003 426.258373 168.21820602000003 425.85267999 168.21820602000003 411.996709 168.21820602000003 400.45006596 179.10949900000003 399.85712999 193.05909201999998 399.20177998 207.38317099999995 410.37393701 219.49154298999997 424.76043002 220.14689299999998L995.50787799 245.20622901000002 1089.37896599 705.10590299 326.92603498 705.10590299C312.508335 705.10590299 300.86807099 716.746168 300.86807099 731.10145402 300.86807099 745.425533 312.508335 757.065797 326.92603498 757.065797L1121.27266597 757.065797C1129.10565899 757.065797 1136.50175197 753.570597 1141.463688 747.5164110000001 1146.39441699 741.493432 1148.39167399 733.53561101 1146.80011001 725.92106801L1042.537043 214.99771397999996ZM1051.74315099 105.46064100000001C1066.129644 105.46064100000001 1077.80111499 93.82037600000001 1077.80111499 79.49629700000003 1077.80111499 65.14101100000005 1066.129644 53.50074700000005 1051.74315099 53.50074700000005L330.32761401 53.50074700000005C317.470271 53.50074700000005 306.547771 62.862889989999985 304.58172099 75.53298999000003L186.213025 843.66561998 26.05796503 843.66561998C11.640265 843.66561998 1e-8 855.305885 1e-8 869.66117099 1e-8 883.98524999 11.640265 895.62551401 26.05796503 895.62551401L208.588547 895.62551401C221.477097 895.62551401 232.39959801 886.26337098 234.365648 873.59327099L352.70313603 105.46064100000001 1051.74315099 105.46064100000001ZM424.229909 22.699295989999996C465.922653 22.699295989999996 499.81361001-11.129247989999953 499.81361001-52.66595599000004 499.81361001-94.20266401000003 465.922653-127.99999998999999 424.229909-127.99999998999999 382.50595799-127.99999998999999 348.58379298-94.20266401000003 348.58379298-52.66595599000004 348.58379298-11.129247989999953 382.50595799 22.699295989999996 424.229909 22.699295989999996ZM424.229909-76.04010599000003C437.14966602-76.04010599000003 447.66647398-65.55450595000002 447.66647398-52.66595599000004 447.66647398-39.746197980000034 437.14966602-29.260598009999967 424.229909-29.260598009999967 411.24773699-29.260598009999967 400.73093001-39.746197980000034 400.73093001-52.66595599000004 400.73093001-65.55450595000002 411.24773699-76.04010599000003 424.229909-76.04010599000003ZM961.83536998 22.699295989999996C1003.52811404 22.699295989999996 1037.45027899-11.129247989999953 1037.45027899-52.66595599000004 1037.45027899-94.20266401000003 1003.52811404-127.99999998999999 961.83536998-127.99999998999999 920.14262604-127.99999998999999 886.220461-94.20266401000003 886.220461-52.66595599000004 886.220461-11.129247989999953 920.14262604 22.699295989999996 961.83536998 22.699295989999996ZM961.83536998-76.04010599000003C974.78633499-76.04010599000003 985.33434899-65.55450595000002 985.33434899-52.66595599000004 985.33434899-39.746197980000034 974.78633499-29.260598009999967 961.83536998-29.260598009999967 948.915613-29.260598009999967 938.36759801-39.746197980000034 938.36759801-52.66595599000004 938.36759801-65.55450595000002 948.915613-76.04010599000003 961.83536998-76.04010599000003Z"  horiz-adv-x="1148" />

    
    <glyph glyph-name="fujin" unicode="&#58890;" d="M470.66585644 124.33678842999996c5.69669334-6.35909951 13.77804785-9.67113038 21.72692192-9.67113038 0.39744396 0 0.79488793 0 1.19233058 0 0.39744396 0 0.79488793 0 1.1923306 0 7.94887406 0 15.89774813 3.31203086 21.72692191 9.67113038l222.17102329 247.87238223c104.39520906 112.47656486 70.74497734 268.14201006 69.28768324 274.76607178l-0.39744396 1.4572941c-37.7571505 135.79326134-127.04949935 193.82003966-195.27733375 218.72651068-35.24000756 12.85067948-68.22783311 18.14992884-93.39926764 20.26962783-1.32481234 0.26496221-2.78210644 0.52992443-4.10691878 0.66240617-0.92736838 0.13248175-8.61128023 0.66240618-21.06451574 0.52992441-12.45323552 0.13248175-20.13714736-0.52992443-21.06451575-0.52992441-1.4572941-0.13248175-2.78210644-0.39744396-4.10691878-0.66240617-25.17143324-2.11970027-58.29174182-7.5514301-93.39926764-20.26962783-68.22783311-24.90647103-157.52018326-82.93325063-195.27733376-218.72651068l-0.39744396-1.4572941c-1.4572941-6.62406173-35.24000756-162.42198867 69.28768325-274.76607178L470.66585644 124.33678842999996zM236.04159762 633.59463726c24.90647103 88.62994268 77.63400127 148.51145906 156.85777709 177.92229282 42.65895591 15.89774813 82.40332493 18.54737282 102.5404723 18.81233503 20.66707179-0.39744396 57.09940994-3.57699308 96.71129848-18.0174471 80.28362595-29.27835202 133.67356108-89.29234886 158.8449956-178.71717946 0.92736838-4.76932366 7.02150569-36.96226387 3.70947482-78.56136965-4.6368432-58.02677831-24.50902706-106.24994711-59.08662844-143.34469143l-0.13248176-0.26496221L493.58510894 186.20552331 291.68371347 411.2911335l-0.39744397 0.39744397c-34.57760139 37.09474433-54.44978525 85.31791183-59.08662844 143.34469143C229.02009195 596.76485644 235.11422925 629.09027581 236.04159762 633.59463726zM493.71759069 448.65084004c66.5055781 0 120.55791938 54.05234259 120.55791939 120.55791938s-54.05234259 120.55791938-120.55791939 120.5579194-120.55791938-54.05234259-120.55791938-120.5579194S427.2120126 448.65084004 493.71759069 448.65084004zM493.71759069 631.4749382699999c34.31263918 0 62.26617886-27.95353968 62.26617886-62.26617885s-27.95353968-62.26617886-62.26617886-62.26617885-62.26617886 27.95353968-62.26617886 62.26617885S459.40495152 631.4749382699999 493.71759069 631.4749382699999zM873.27631549 132.81558688999996l-0.66240617 0.52992443c-46.36843073 43.18888162-129.16919962 65.57820843-154.60559636 72.86467631-15.50030417 4.37188099-31.6630145-4.50436145-36.03489419-20.0046656-4.37188099-15.50030417 4.50436145-31.6630145 20.00466561-36.03489421 22.38932809-6.49157997 94.85656044-26.36376512 130.62649242-59.2191102 10.20105478-10.20105478 18.81233503-25.43639674 15.23534195-36.82978212-4.90180541-15.89774813-33.65023301-34.31263918-77.10407555-42.52647545l-0.13248175 0c-0.13248175 0-20.26962783-3.84195529-59.08662846-7.81639232-36.0348942-3.70947483-111.41671473-8.08135452-191.83282114-8.74376069-5.69669334 0-12.58571727 0-19.87218515 0-31.13308878 0-73.65956423 0.13248175-78.69385139 0.26496221-57.23189169 0.92736838-109.82694018 3.84195529-156.46033313 8.61128023-38.81700063 3.97443703-58.82166625 7.81639231-58.954148 7.81639232l-0.13248175 0c-43.45384383 8.21383627-72.20227014 26.62872733-77.10407556 42.52647545-3.44451261 11.52586714 5.16676762 26.76120908 15.23534196 36.82978212 35.63745153 32.98782684 108.23716562 52.8600107 130.62649241 59.21911021 15.50030417 4.37188099 24.37654661 20.53459133 20.00466562 36.0348942-4.37188099 15.50030417-20.53459133 24.37654661-36.03489418 20.0046656-25.30391499-7.28646789-108.10468387-29.80827644-154.60559638-72.8646763l-0.66240616-0.52992443c-22.12436588-21.85940238-41.73158753-58.42422227-30.47068261-95.65144837 11.92331109-39.2144446 52.99249245-69.6851272 121.88273172-82.80076889 2.11970027-0.39744396 23.58165868-4.50436145 64.25339608-8.61128022 48.2231675-4.90180541 102.54047229-7.94887406 161.36213854-8.87624244 5.03428716-0.13248175 38.9494811-0.13248175 79.48873803-0.26496222 4.6368432 0 9.00872419 0 12.98315993 0 0.52992443 0 1.19233059 0 1.7222563 0 0 0 0.13248175 0 0.13248176 0 1.72225631 0 3.57699308 0 5.29924937 0 8.47879849 0 14.57293579 0 16.42767255 0 0 0 0.13248175 0 0.13248175 0 1.4572941 0 2.78210644 0.13248175 4.23939923 0.26496222 72.33475189 1.19233059 142.54980352 5.43172983 176.5974805 8.87624244 40.67173739 4.10691878 62.26617886 8.21383627 64.25339608 8.61128022 68.89023929 12.98315994 109.95942064 43.58632429 121.88273172 82.80076889C915.14038348 74.39136461999999 895.40068007 110.95618451999997 873.27631549 132.81558688999996z"  horiz-adv-x="1024" />

    
    <glyph glyph-name="shouji" unicode="&#58904;" d="M761.503 893.094h-519.381c-32.405 0-58.932-26.061-58.932-58.528v-902.302c0-32.156 26.217-58.217 58.932-58.217h519.381c32.345 0 58.591 26.061 58.591 58.217v902.613c0 32.156-26.247 58.217-58.591 58.217M452.879 834.877h98.147c6.78 0 12.315-5.536 12.315-12.253 0-6.749-5.535-12.253-12.315-12.253h-98.147c-6.779 0-12.345 5.504-12.345 12.253-0.001 6.717 5.566 12.253 12.345 12.253M501.642-84.593c-29.637 0-53.988 23.946-53.988 53.678 0 29.357 24.040 53.614 53.988 53.614 29.917 0 53.988-23.884 53.988-53.614 0-29.731-24.069-53.678-53.988-53.678M766.357 92.857c0-16.234-13.186-29.108-29.234-29.108h-470.619c-16.358 0-29.326 13.186-29.326 29.108l-0 639.642c0 16.233 13.279 29.139 29.326 29.139h470.246c16.421 0 29.358-13.185 29.358-29.139v-639.642l0.249 0zM766.357 92.857z"  horiz-adv-x="1024" />

    
    <glyph glyph-name="shoucang" unicode="&#58934;" d="M1003.735979 450.074881L1003.735979 450.074881 746.069525 260.80928300999994l99.25865499-307.95069702c1.54723899-4.76962997 2.40476999-9.924024 2.40477002-15.210423 0-26.948769-21.48328999-48.73495801-47.96338501-48.73495803-10.50935499 0-20.19187801 3.47719401-28.10510499 9.28241102l0 0L512.00153501 88.88156199000002 252.33758701-101.80233798999996l-0.01637302-2e-8c-7.89685399-5.80521598-17.58346998-9.28241101-28.09077798-9.28241099-26.495444 0-47.96236201 21.78618899-47.96236203 48.73495799 0 5.28639997 0.85446102 10.44079301 2.40170001 15.210423l99.25967801 307.95069701L20.25071799 450.074881l0.01637301 0C8.24426601 458.907037 0.41085699 473.28244299 0.41085699 489.528452c0 26.881231 21.466917 48.67151301 47.960315 48.671513l0 0 318.98705501 0 98.775654 306.46383402c6.02727395 19.9821 24.27077598 34.422997 45.86663 34.42299702 21.59585402 0 39.839357-14.43987399 45.84923399-34.42299702l98.79100402-306.46383402 318.98807799 0 0 0c26.49442098 0 47.95929201-21.79028202 47.959292-48.671513C1023.587096 473.28244299 1015.75675701 458.907037 1003.735979 450.074881z"  horiz-adv-x="1024" />

    
    <glyph glyph-name="wode" unicode="&#58905;" d="M997.66272-72.48384 26.33728-72.48384l0 15.36c0 22.67136 30.26432 84.75648 79.15008 145.52576 43.21792 53.72416 113.66912 122.17344 203.8528 143.22176l4.33664 1.00864 4.20864-1.46432c32.50688-11.33056 59.3152-22.12352 82.96448-31.65696 48.57856-19.56864 80.67072-32.49664 117.35552-32.49664 42.52672 0 93.32736 18.28864 175.34976 63.12448l5.08416 2.77504 5.65248-1.26976c219.0592-49.27488 285.15328-275.01056 287.86176-284.5952L997.66272-72.48384zM61.31712-41.76384l894.44864 0c-20.74112 53.8624-91.66336 202.92096-252.6464 242.13504-84.992-46.04928-137.14432-64.07168-184.91392-64.0768-42.63424 0-78.7968 14.5664-128.83456 34.71872-22.28224 8.97536-47.40096 19.09248-77.32736 29.6448C178.11968 166.62528 82.19648 11.35616 61.31712-41.76384zM509.53216 258.11456c-168.23296 0-305.1008 136.86272-305.1008 305.09568 0 168.23296 136.86784 305.1008 305.1008 305.1008 168.23296 0 305.10592-136.86784 305.10592-305.1008C814.63296 394.9824 677.76512 258.11456 509.53216 258.11456zM509.53216 837.59616c-151.29088 0-274.3808-123.08992-274.3808-274.3808 0-151.29088 123.08992-274.37568 274.3808-274.37568 151.296 0 274.38592 123.0848 274.38592 274.37568C783.91296 714.50624 660.82304 837.59616 509.53216 837.59616z"  horiz-adv-x="1024" />

    
    <glyph glyph-name="fangdajing" unicode="&#59108;" d="M1000.81765136-38.537291849999974l-248.55134816 248.55134814C810.26161779 276.29441581000003 843.40179753 367.42991013999995 843.40179753 466.85044938c0 231.98125828-182.27098864 414.25224691-414.25224693 414.25224693S14.89730369 698.83170766 14.89730369 466.85044938s182.27098864-414.25224691 414.25224693-414.25224691c99.42053926 0 190.55603358 33.1401798 256.83639306 91.13549433l248.55134817-248.55134816c16.57008986-16.57008986 41.42522469-16.57008986 57.99531457 0C1009.10269631-88.24756147999994 1009.10269631-55.10738173000004 1000.81765136-38.537291849999974zM97.74775309 466.85044938c0 182.27098864 149.1308089 331.40179753 331.40179751 331.40179753s331.40179753-149.1308089 331.40179756-331.40179751c0-182.27098864-149.1308089-331.40179753-331.40179756-331.40179756S97.74775309 284.57946073999994 97.74775309 466.85044938z"  horiz-adv-x="1024" />

    
    <glyph glyph-name="faxian" unicode="&#59206;" d="M755.2 660.48c-10.24-2.56-240.64-94.72-335.36-186.88-92.16-92.16-181.76-325.12-186.88-335.36-2.56-10.24-2.56-20.48 5.12-28.16 5.12-5.12 10.24-7.68 17.92-7.68 2.56 0 5.12 0 10.24 2.56 10.24 2.56 240.64 94.72 335.36 186.88 92.16 92.16 181.76 325.12 186.88 335.36 2.56 10.24 2.56 20.48-5.12 28.16-7.68 7.68-17.92 10.24-28.16 5.12z m-189.44-330.24c-58.88-58.88-186.88-120.32-261.12-151.04 33.28 74.24 92.16 202.24 151.04 261.12 58.88 58.88 186.88 120.32 261.12 151.04-30.72-74.24-92.16-202.24-151.04-261.12zM512 384m-51.2 0a51.2 51.2 0 1 1 102.4 0 51.2 51.2 0 1 1-102.4 0ZM512 896C230.4 896 0 665.6 0 384s230.4-512 512-512c107.52 0 209.92 33.28 296.96 94.72 10.24 7.68 15.36 23.04 5.12 35.84-7.68 10.24-23.04 15.36-35.84 5.12-76.8-53.76-168.96-84.48-266.24-84.48-253.44 0-460.8 207.36-460.8 460.8S258.56 844.8 512 844.8s460.8-207.36 460.8-460.8c0-97.28-30.72-189.44-87.04-268.8-7.68-10.24-5.12-28.16 5.12-35.84 10.24-7.68 28.16-5.12 35.84 5.12C990.72 174.08 1024 276.48 1024 384 1024 665.6 793.6 896 512 896z"  horiz-adv-x="1024" />

    
    <glyph glyph-name="shezhi" unicode="&#58970;" d="M201.6256 563.2c-32.8704-56.8832-86.784-95.7952-144.6912-106.3936a464.5888 464.5888 0 0 1 0-145.6128c57.856-10.5984 111.8208-49.5104 144.6912-106.3936 32.8192-56.832 39.5776-123.0336 19.7632-178.432a460.2368 460.2368 0 0 1 126.1056-72.96C385.536-1.6896 446.3104 25.6 512 25.6c65.7408 0 126.4128-27.2896 164.5056-72.192a460.2368 460.2368 0 0 1 126.1056 72.96c-19.8144 55.3984-13.056 121.5488 19.7632 178.432 32.8704 56.8832 86.784 95.7952 144.6912 106.3936a464.5888 464.5888 0 0 1 0 145.6128c-57.856 10.5984-111.8208 49.5104-144.6912 106.3936-32.8192 56.832-39.5776 123.0336-19.7632 178.432a460.2368 460.2368 0 0 1-126.1056 72.96C638.464 769.6896 577.6896 742.4 512 742.4c-65.7408 0-126.4128 27.2896-164.5056 72.192a460.2368 460.2368 0 0 1-126.1056-72.96c19.8144-55.3984 13.056-121.5488-19.7632-178.432z m-43.6224 190.72A511.488 511.488 0 0 0 368.5888 875.6224C390.7584 827.648 446.6176 793.6 512 793.6c65.3824 0 121.2416 34.048 143.36 82.0224a511.488 511.488 0 0 0 210.6368-121.7024c-30.4128-43.2128-31.9488-108.544 0.7168-165.12 32.7168-56.6272 90.112-87.9616 142.7456-83.1488 9.5232-39.0144 14.5408-79.7184 14.5408-121.6512s-5.0176-82.6368-14.5408-121.6512c-52.6336 4.8128-110.08-26.5216-142.7456-83.1488-32.6656-56.576-31.1296-121.9072-0.7168-165.12a511.488 511.488 0 0 0-210.5856-121.7024C633.2416-59.648 577.3824-25.6 512-25.6c-65.3824 0-121.2416-34.048-143.36-82.0224a511.488 511.488 0 0 0-210.6368 121.7024c30.4128 43.2128 31.9488 108.544-0.7168 165.12-32.7168 56.6272-90.112 87.9616-142.7456 83.1488A513.2288 513.2288 0 0 0 0 384c0 41.9328 5.0176 82.6368 14.5408 121.6512 52.6336-4.8128 110.08 26.5216 142.7456 83.1488 32.6656 56.576 31.1296 121.9072 0.7168 165.12zM512 204.8a179.2 179.2 0 1 0 0 358.4 179.2 179.2 0 0 0 0-358.4z m0 51.2a128 128 0 1 1 0 256 128 128 0 0 1 0-256z"  horiz-adv-x="1024" />

    
    <glyph glyph-name="xiajiantou" unicode="&#58901;" d="M750.13751339 510.27089023H273.86248661l237.42055892-252.52005457L750.11578751 510.27089023z"  horiz-adv-x="1024" />

    
    <glyph glyph-name="xiajiantou1" unicode="&#58921;" d="M543.92503982 108.38417171000003L1007.0700986 600.5158410500001a40.56358002 40.56358002 0 0 1 0 58.48137054 43.32526165 43.32526165 0 0 1-60.09419262 0l-435.24102742-462.46016172-435.24102742 462.46016172a43.32526165 43.32526165 0 0 1-60.09419262 0 40.56358002 40.56358002 0 0 1 0-58.48137054l463.14505877-492.13166934a50.08585833 50.08585833 0 0 1 64.38032253 0z"  horiz-adv-x="1024" />

    
    <glyph glyph-name="caidan" unicode="&#58910;" d="M25.03111146 798.15111147h978.48888854v-45.51111145H25.03111146zM25.03111146 406.7555552h978.48888854v-45.5111104H25.03111146zM25.03111146 15.360000010000022h978.48888854v-45.51111148H25.03111146z"  horiz-adv-x="1024" />

    
    <glyph glyph-name="zuijinliulan" unicode="&#58927;" d="M512 866.0992A482.0992 482.0992 0 1 1 994.0992 384 482.7136 482.7136 0 0 1 512 866.0992z m0-915.2512A433.152 433.152 0 1 0 945.152 384 433.5616 433.5616 0 0 0 512-49.152zM755.0976 408.4736H536.4736V616.8576a24.4736 24.4736 0 0 1-49.0496 0V384a24.4736 24.4736 0 0 1 24.576-24.4736h243.0976a24.4736 24.4736 0 1 1 0 49.0496z"  horiz-adv-x="1024" />

    
    <glyph glyph-name="shouyex" unicode="&#58902;" d="M913.95413333 300.71466667000004h-33.31413333a32.05802667 32.05802667 0 0 0-31.23882667 31.23882666c0 16.65706667-685.23349333-31.23882667-701.89056-31.23882666h-41.61536c-35.44405333 0-64.60757333 20.75306667-79.18933333 52.04650666-12.45184 33.31413333-6.22592 68.70357333 18.78698667 93.71648l404.02944 404.02944c33.31413333 33.31413333 87.49056 33.31413333 120.80469333 0l404.02944-404.02944c25.01290667-25.01290667 31.23882667-60.40234667 18.73237333-93.71648-14.58176-31.23882667-43.69066667-52.04650667-79.13472-52.04650666zM372.46293333-107.51999999999998H228.77525333a115.56181333 115.56181333 0 0 0-114.57877333 114.52416v312.38826667c0 16.71168 14.58176 31.29344 31.23882667 31.29344 11.14112 0 86.8352-131.8912 227.02762666-395.72821334 16.65706667 0 31.23882667-14.58176 31.23882667-31.23882666a32.05802667 32.05802667 0 0 0-31.23882667-31.23882667z m259.57717334 11.30496a32.768 32.768 0 0 0-7.59125334-0.87381333 32.05802667 32.05802667 0 0 0-31.23882666 31.23882666v302.01173334h-166.57066667v-302.01173334a32.05802667 32.05802667 0 0 0-31.29344-31.23882666 30.69269333 30.69269333 0 0 0-31.23882667 31.23882666l-218.67178666 380.60032c0 29.32736 573.87690667 53.68490667 711.28405333 34.95253334a30.47424 30.47424 0 0 0 17.69472 5.78901333c16.65706667 0 31.23882667-14.58176 31.23882667-31.23882667v-317.24885333A114.19648 114.19648 0 0 0 791.07413333-107.51999999999998h-135.38645333a31.45728 31.45728 0 0 0-23.64757333 11.30496z"  horiz-adv-x="1024" />

    
    <glyph glyph-name="jiahao" unicode="&#59163;" d="M985.31555555 420.40888889H548.40888889V857.31555555c0 21.84533333-14.56355555 36.40888889-36.40888889 36.4088889s-36.40888889-14.56355555-36.40888889-36.4088889v-436.90666666H38.68444445c-21.84533333 0-36.40888889-14.56355555-36.4088889-36.40888889s14.56355555-36.40888889 36.4088889-36.40888889h436.90666666v-436.90666666c0-21.84533333 14.56355555-36.40888889 36.40888889-36.4088889s36.40888889 14.56355555 36.40888889 36.4088889V347.59111111000004h436.90666666c21.84533333 0 36.40888889 14.56355555 36.4088889 36.40888889s-14.56355555 36.40888889-36.4088889 36.40888889z"  horiz-adv-x="1024" />

    
    <glyph glyph-name="tubiao_dingdan" unicode="&#58929;" d="M745.780475 606.363342H279.264309c-11.118192 0-20.130712 9.01252-20.130712 20.130712 0 11.117186 9.01252 20.130712 20.130712 20.130712h466.515159c11.118192 0 20.130712-9.013526 20.130712-20.130712 0.001007-11.118192-9.01252-20.130712-20.129705-20.130712zM684.928352 403.53132h-405.664043c-11.118192 0-20.130712 9.01252-20.130712 20.130712 0 11.117186 9.01252 20.130712 20.130712 20.130712h405.664043c11.118192 0 20.130712-9.013526 20.130712-20.130712 0-11.118192-9.01252-20.130712-20.130712-20.130712zM563.228133 200.696279h-283.963824c-11.118192 0-20.130712 9.013526-20.130712 20.130712s9.01252 20.130712 20.130712 20.130712h283.963824c11.118192 0 20.130712-9.013526 20.130712-20.130712s-9.01252-20.130712-20.130712-20.130712zM538.107017-102.68361700000003c-3.690966 0-6.053305 0.053346-6.940063 0.077504H130.186321c-16.650112 0-30.196068 13.545956-30.196068 30.196068V840.487549c0 16.650112 13.545956 30.196068 30.196068 30.196068h763.627358c16.650112 0 30.196068-13.545956 30.196068-30.196068v-667.630032l-0.036235-0.603921c-3.674861-61.099731-24.360175-113.540235-61.482215-155.864051-30.054147-34.266498-70.85608-61.821417-121.271435-81.900795-86.60333-34.491962-177.359625-37.172366-203.112845-37.172367z m-397.85534 40.338928h391.543355l0.33417-0.011072c0.007046 0 2.131842-0.066431 5.977815-0.066432 23.941456 0 108.270015 2.474065 188.216118 34.315819 98.550907 39.248849 151.513804 107.272538 157.425188 202.185825V830.422193H140.251677v-892.766882z"  horiz-adv-x="1024" />

    


  </font>
</defs>
</svg>
